<svg xmlns="http://www.w3.org/2000/svg" viewBox="0 0 48 48" width="48" height="48"><defs><pattern id="gr" width="13" height="13" patternUnits="userSpaceOnUse" patternTransform="rotate(9)"><g fill="#fff8ea" fill-opacity=".75"><circle cx="0.00" cy="11.97" r="0.31"/><circle cx="2.74" cy="9.48" r="0.39"/><circle cx="4.28" cy="9.78" r="0.46"/><circle cx="7.06" cy="8.90" r="0.42"/><circle cx="10.62" cy="3.15" r="0.34"/><circle cx="9.20" cy="9.07" r="0.24"/><circle cx="8.89" cy="6.08" r="0.52"/><circle cx="10.50" cy="1.60" r="0.38"/><circle cx="12.00" cy="8.95" r="0.43"/></g></pattern><pattern id="ht-pink" width="3.1" height="3.1" patternUnits="userSpaceOnUse" patternTransform="rotate(24)"><circle cx="1.55" cy="1.55" r="1.08" fill="#ee3d84"/></pattern></defs><g class="pop-edge"><path d="M5 25L12 18L19 25L36 8L43 15L19 39Z" fill="#fff3dc" stroke="#fff3dc" stroke-width="6.2" stroke-linejoin="round"/><path d="M40 29.5Q40.9 33.1 44.5 34Q40.9 34.9 40 38.5Q39.1 34.9 35.5 34Q39.1 33.1 40 29.5Z" fill="#fff3dc" stroke="#fff3dc" stroke-width="3.6" stroke-linejoin="round"/></g><g transform="translate(2 1.6)"><path d="M5 25L12 18L19 25L36 8L43 15L19 39Z" fill="#ffe23a"/><clipPath id="cp0"><path d="M5 25L12 18L19 25L36 8L43 15L19 39Z"/></clipPath><g clip-path="url(#cp0)"><path d="M5 25L12 18L19 25L36 8L43 15L19 39Z" fill="url(#ht-pink)"/><g transform="translate(-4.93 -4.93)"><path d="M5 25L12 18L19 25L36 8L43 15L19 39Z" fill="#ffe23a"/></g><path d="M5 25L12 18L19 25L36 8L43 15L19 39Z" fill="url(#gr)"/></g></g><path d="M5 25L12 18L19 25L36 8L43 15L19 39Z" fill="none" stroke="#2a2740" stroke-width="2.6" stroke-linejoin="round" stroke-linecap="round"/><path d="M40 29.5Q40.9 33.1 44.5 34Q40.9 34.9 40 38.5Q39.1 34.9 35.5 34Q39.1 33.1 40 29.5Z" fill="#ee3d84"/></svg>
