<svg xmlns="http://www.w3.org/2000/svg" viewBox="0 0 48 48" width="48" height="48"><defs><pattern id="gr" width="13" height="13" patternUnits="userSpaceOnUse" patternTransform="rotate(9)"><g fill="#fff8ea" fill-opacity=".75"><circle cx="0.00" cy="11.97" r="0.31"/><circle cx="2.74" cy="9.48" r="0.39"/><circle cx="4.28" cy="9.78" r="0.46"/><circle cx="7.06" cy="8.90" r="0.42"/><circle cx="10.62" cy="3.15" r="0.34"/><circle cx="9.20" cy="9.07" r="0.24"/><circle cx="8.89" cy="6.08" r="0.52"/><circle cx="10.50" cy="1.60" r="0.38"/><circle cx="12.00" cy="8.95" r="0.43"/></g></pattern><pattern id="ht-mag" width="3.1" height="3.1" patternUnits="userSpaceOnUse" patternTransform="rotate(24)"><circle cx="1.55" cy="1.55" r="1.08" fill="#b3175a"/></pattern><pattern id="ht-pink" width="3.1" height="3.1" patternUnits="userSpaceOnUse" patternTransform="rotate(24)"><circle cx="1.55" cy="1.55" r="1.08" fill="#ee3d84"/></pattern></defs><g class="pop-edge"><path d="M7.5 45C7.5 36 15 31 24 31S40.5 36 40.5 45Z" fill="#fff3dc" stroke="#fff3dc" stroke-width="6.2" stroke-linejoin="round"/><circle cx="24" cy="19" r="13" fill="#fff3dc" stroke="#fff3dc" stroke-width="6.2" stroke-linejoin="round"/><path d="M20.5 24C22.5 26 25.5 26 27.5 24" fill="none" stroke="#fff3dc" stroke-width="5.800000000000001" stroke-linejoin="round" stroke-linecap="round"/></g><g transform="translate(2 1.6)"><path d="M7.5 45C7.5 36 15 31 24 31S40.5 36 40.5 45Z" fill="#ee3d84"/><clipPath id="cp0"><path d="M7.5 45C7.5 36 15 31 24 31S40.5 36 40.5 45Z"/></clipPath><g clip-path="url(#cp0)"><path d="M7.5 45C7.5 36 15 31 24 31S40.5 36 40.5 45Z" fill="url(#ht-mag)"/><g transform="translate(-4.35 -4.35)"><path d="M7.5 45C7.5 36 15 31 24 31S40.5 36 40.5 45Z" fill="#ee3d84"/></g><path d="M7.5 45C7.5 36 15 31 24 31S40.5 36 40.5 45Z" fill="url(#gr)"/></g></g><path d="M7.5 45C7.5 36 15 31 24 31S40.5 36 40.5 45Z" fill="none" stroke="#2a2740" stroke-width="2.6" stroke-linejoin="round" stroke-linecap="round"/><g transform="translate(2 1.6)"><circle cx="24" cy="19" r="13" fill="#fff3dc"/><clipPath id="cp1"><circle cx="24" cy="19" r="13"/></clipPath><g clip-path="url(#cp1)"><circle cx="24" cy="19" r="13" fill="url(#ht-pink)"/><g transform="translate(-4.35 -4.35)"><circle cx="24" cy="19" r="13" fill="#fff3dc"/></g><circle cx="24" cy="19" r="13" fill="url(#gr)"/></g></g><circle cx="24" cy="19" r="13" fill="none" stroke="#2a2740" stroke-width="2.6" stroke-linejoin="round" stroke-linecap="round"/><circle cx="19.5" cy="18.5" r="2" fill="#2a2740"/><circle cx="28.5" cy="18.5" r="2" fill="#2a2740"/><path d="M20.5 24C22.5 26 25.5 26 27.5 24" fill="none" stroke="#2a2740" stroke-width="2.2" stroke-linejoin="round" stroke-linecap="round"/><g transform="translate(2 1.6)"><circle cx="15.5" cy="23" r="2" fill="#f8aecb"/></g><g transform="translate(2 1.6)"><circle cx="32.5" cy="23" r="2" fill="#f8aecb"/></g></svg>
