<svg xmlns="http://www.w3.org/2000/svg" viewBox="0 0 48 48" width="48" height="48"><defs><pattern id="gr" width="13" height="13" patternUnits="userSpaceOnUse" patternTransform="rotate(9)"><g fill="#fff8ea" fill-opacity=".75"><circle cx="0.00" cy="11.97" r="0.31"/><circle cx="2.74" cy="9.48" r="0.39"/><circle cx="4.28" cy="9.78" r="0.46"/><circle cx="7.06" cy="8.90" r="0.42"/><circle cx="10.62" cy="3.15" r="0.34"/><circle cx="9.20" cy="9.07" r="0.24"/><circle cx="8.89" cy="6.08" r="0.52"/><circle cx="10.50" cy="1.60" r="0.38"/><circle cx="12.00" cy="8.95" r="0.43"/></g></pattern><pattern id="ht-mag" width="3.1" height="3.1" patternUnits="userSpaceOnUse" patternTransform="rotate(24)"><circle cx="1.55" cy="1.55" r="1.08" fill="#b3175a"/></pattern><pattern id="ht-pink" width="3.1" height="3.1" patternUnits="userSpaceOnUse" patternTransform="rotate(24)"><circle cx="1.55" cy="1.55" r="1.08" fill="#ee3d84"/></pattern></defs><g class="pop-edge"><rect x="16.5" y="4.5" width="15" height="24" rx="7.5" fill="#fff3dc" stroke="#fff3dc" stroke-width="6.2" stroke-linejoin="round"/><path d="M17.5 14.5h5M17.5 19.5h5" fill="none" stroke="#fff3dc" stroke-width="5.800000000000001" stroke-linejoin="round" stroke-linecap="round"/><path d="M10.5 21.5a13.5 13.5 0 0 0 27 0M24 35.5V40" fill="none" stroke="#fff3dc" stroke-width="6.2" stroke-linejoin="round" stroke-linecap="round"/><rect x="14.5" y="39.5" width="19" height="5.5" rx="2.75" fill="#fff3dc" stroke="#fff3dc" stroke-width="6.2" stroke-linejoin="round"/><path d="M6 10.5a12 12 0 0 0 0 15M42 10.5a12 12 0 0 1 0 15" fill="none" stroke="#fff3dc" stroke-width="6" stroke-linejoin="round" stroke-linecap="round"/><path d="M2.5 7.5a16 16 0 0 0 0 22M45.5 7.5a16 16 0 0 1 0 22" fill="none" stroke="#fff3dc" stroke-width="5.4" stroke-linejoin="round" stroke-linecap="round"/></g><g transform="translate(2 1.6)"><rect x="16.5" y="4.5" width="15" height="24" rx="7.5" fill="#ff6d5a"/><clipPath id="cp0"><rect x="16.5" y="4.5" width="15" height="24" rx="7.5"/></clipPath><g clip-path="url(#cp0)"><rect x="16.5" y="4.5" width="15" height="24" rx="7.5" fill="url(#ht-mag)"/><g transform="translate(-5.8 -5.8)"><rect x="16.5" y="4.5" width="15" height="24" rx="7.5" fill="#ff6d5a"/></g><rect x="16.5" y="4.5" width="15" height="24" rx="7.5" fill="url(#gr)"/></g></g><rect x="16.5" y="4.5" width="15" height="24" rx="7.5" fill="none" stroke="#2a2740" stroke-width="2.6" stroke-linejoin="round" stroke-linecap="round"/><path d="M17.5 14.5h5M17.5 19.5h5" fill="none" stroke="#2a2740" stroke-width="2.2" stroke-linejoin="round" stroke-linecap="round"/><g transform="translate(2 1.6)"><path d="M20.5 9.5v1.5" fill="none" stroke="#fff3dc" stroke-width="2.6" stroke-linecap="round"/></g><path d="M10.5 21.5a13.5 13.5 0 0 0 27 0M24 35.5V40" fill="none" stroke="#2a2740" stroke-width="2.6" stroke-linejoin="round" stroke-linecap="round"/><g transform="translate(2 1.6)"><rect x="14.5" y="39.5" width="19" height="5.5" rx="2.75" fill="#ffe23a"/><clipPath id="cp1"><rect x="14.5" y="39.5" width="19" height="5.5" rx="2.75"/></clipPath><g clip-path="url(#cp1)"><rect x="14.5" y="39.5" width="19" height="5.5" rx="2.75" fill="url(#ht-pink)"/><g transform="translate(-2.9 -2.9)"><rect x="14.5" y="39.5" width="19" height="5.5" rx="2.75" fill="#ffe23a"/></g><rect x="14.5" y="39.5" width="19" height="5.5" rx="2.75" fill="url(#gr)"/></g></g><rect x="14.5" y="39.5" width="19" height="5.5" rx="2.75" fill="none" stroke="#2a2740" stroke-width="2.6" stroke-linejoin="round" stroke-linecap="round"/><path d="M6 10.5a12 12 0 0 0 0 15M42 10.5a12 12 0 0 1 0 15" fill="none" stroke="#2a2740" stroke-width="2.4" stroke-linejoin="round" stroke-linecap="round"/><path d="M2.5 7.5a16 16 0 0 0 0 22M45.5 7.5a16 16 0 0 1 0 22" fill="none" stroke="#2a2740" stroke-width="1.8" stroke-linecap="round"/></svg>
